<svg version="1.1" viewBox="0.0 0.0 500.16010498687666 500.0" fill="none" stroke="none" stroke-linecap="square" stroke-miterlimit="10" xmlns:xlink="http://www.w3.org/1999/xlink" xmlns="http://www.w3.org/2000/svg"><clipPath id="p.0"><path d="m0 0l500.1601 0l0 500.0l-500.1601 0l0 -500.0z" clip-rule="nonzero"/></clipPath><g clip-path="url(#p.0)"><path fill="#000000" fill-opacity="0.0" d="m0 0l500.1601 0l0 500.0l-500.1601 0z" fill-rule="evenodd"/><path fill="#0f3040" d="m0 -0.07874016l500.15747 0l0 500.15747l-500.15747 0z" fill-rule="evenodd"/><path fill="#000000" fill-opacity="0.0" d="m101.908134 281.1407l0 0c0 -79.52901 64.471 -144.0 144.0 -144.0l0 0c38.191162 0 74.818146 15.171387 101.823364 42.17662c27.005249 27.005234 42.176636 63.632202 42.176636 101.82338l0 0c0 79.52899 -64.47101 144.0 -144.0 144.0l0 0c-79.52901 0 -144.0 -64.47101 -144.0 -144.0z" fill-rule="evenodd"/><path stroke="#a39bff" stroke-width="8.0" stroke-linejoin="round" stroke-linecap="butt" d="m101.908134 281.1407l0 0c0 -79.52901 64.471 -144.0 144.0 -144.0l0 0c38.191162 0 74.818146 15.171387 101.823364 42.17662c27.005249 27.005234 42.176636 63.632202 42.176636 101.82338l0 0c0 79.52899 -64.47101 144.0 -144.0 144.0l0 0c-79.52901 0 -144.0 -64.47101 -144.0 -144.0z" fill-rule="evenodd"/><path fill="#000000" fill-opacity="0.0" d="m53.90814 281.1407l0 0c0 -106.03868 85.96132 -192.0 192.0 -192.0l0 0c50.92157 0 99.75751 20.228508 135.7645 56.23549c36.00699 36.00699 56.235504 84.84294 56.235504 135.76451l0 0c0 106.038666 -85.961334 192.0 -192.0 192.0l0 0c-106.03868 0 -192.0 -85.961334 -192.0 -192.0z" fill-rule="evenodd"/><path stroke="#03a9f4" stroke-width="8.0" stroke-linejoin="round" stroke-linecap="butt" d="m53.90814 281.1407l0 0c0 -106.03868 85.96132 -192.0 192.0 -192.0l0 0c50.92157 0 99.75751 20.228508 135.7645 56.23549c36.00699 36.00699 56.235504 84.84294 56.235504 135.76451l0 0c0 106.038666 -85.961334 192.0 -192.0 192.0l0 0c-106.03868 0 -192.0 -85.961334 -192.0 -192.0z" fill-rule="evenodd"/><path fill="#000000" fill-opacity="0.0" d="m5.9081364 281.1407l0 0c0 -132.54834 107.45166 -240.0 240.0 -240.0l0 0c63.651947 0 124.6969 25.28564 169.70563 70.29437c45.008728 45.008728 70.29437 106.053665 70.29437 169.70563l0 0c0 132.54834 -107.45166 240.0 -240.0 240.0l0 0c-132.54834 0 -240.0 -107.45166 -240.0 -240.0z" fill-rule="evenodd"/><path stroke="#ff74a5" stroke-width="8.0" stroke-linejoin="round" stroke-linecap="butt" d="m5.9081364 281.1407l0 0c0 -132.54834 107.45166 -240.0 240.0 -240.0l0 0c63.651947 0 124.6969 25.28564 169.70563 70.29437c45.008728 45.008728 70.29437 106.053665 70.29437 169.70563l0 0c0 132.54834 -107.45166 240.0 -240.0 240.0l0 0c-132.54834 0 -240.0 -107.45166 -240.0 -240.0z" fill-rule="evenodd"/><path fill="#0f3040" d="m0.002624672 192.0l500.15747 0l0 308.34647l-500.15747 0z" fill-rule="evenodd"/><path fill="#0f3040" d="m86.56956 192.0l0 -192.0l159.3386 192.0z" fill-rule="evenodd"/><path stroke="#0f3040" stroke-width="1.0" stroke-linejoin="round" stroke-linecap="butt" d="m86.56956 192.0l0 -192.0l159.3386 192.0z" fill-rule="evenodd"/><path fill="#0f3040" d="m405.2467 192.0l0 -192.0l-159.33856 192.0z" fill-rule="evenodd"/><path stroke="#0f3040" stroke-width="1.0" stroke-linejoin="round" stroke-linecap="butt" d="m405.2467 192.0l0 -192.0l-159.33856 192.0z" fill-rule="evenodd"/><path fill="#0f3040" d="m10.448819 8.0l109.66929 0l0 234.83464l-109.66929 0z" fill-rule="evenodd"/><path fill="#0f3040" d="m389.90814 8.0l109.66928 0l0 234.83464l-109.66928 0z" fill-rule="evenodd"/><path fill="#4eefcd" d="m137.44788 213.39981l199.27893 0l0 30.524445l-199.27893 0z" fill-rule="evenodd"/><path fill="#4eefcd" d="m137.44868 376.76685l0 0c0 -36.36841 29.482422 -65.85083 65.85083 -65.85083l189.21336 0l0 0c17.464722 0 34.21414 6.9378357 46.56357 19.287262c12.349426 12.349426 19.287262 29.098846 19.287262 46.56357l0 83.79996l0 0c0 36.36841 -29.482422 65.85086 -65.85083 65.85086l-189.21336 0c-36.36841 0 -65.85083 -29.482452 -65.85083 -65.85086z" fill-rule="evenodd"/><path fill="#0f3040" d="m166.1398 376.97485l0 0c0 -19.488861 15.798843 -35.28772 35.28772 -35.28772l136.51578 0l0 0c9.358887 0 18.334442 3.717804 24.952179 10.335541c6.617737 6.6177063 10.335541 15.593292 10.335541 24.952179l0 128.54276c0 19.488861 -15.798859 35.28775 -35.28772 35.28775l-136.51578 0c-19.488876 0 -35.28772 -15.798889 -35.28772 -35.28775z" fill-rule="evenodd"/><path fill="#0f3040" d="m154.40182 549.9147l-87.157265 -57.34204l167.8552 -77.70691z" fill-rule="evenodd"/><path fill="#4eefcd" d="m367.52136 248.7714l25.947998 -57.06743l31.138458 0l-25.947968 57.06743z" fill-rule="evenodd"/><path fill="#0f3040" d="m336.72702 296.6929l158.38443 0l0 240.7175l-158.38443 0z" fill-rule="evenodd"/></g></svg>